<svg width="25" height="24" viewBox="0 0 25 24" fill="none" xmlns="http://www.w3.org/2000/svg">
<path d="M15.9688 20.4844L12.5 17.0156L13.9062 15.6094L15.9688 17.6719L21.0781 12.5156L22.4844 13.9219L15.9688 20.4844ZM14.3281 10.8281C13.5469 11.6094 12.6094 12 11.5156 12C10.4219 12 9.46875 11.6094 8.65625 10.8281C7.875 10.0469 7.48438 9.10938 7.48438 8.01562C7.48438 6.92188 7.875 5.98438 8.65625 5.20312C9.46875 4.39063 10.4219 3.98438 11.5156 3.98438C12.6094 3.98438 13.5469 4.39063 14.3281 5.20312C15.1094 5.98438 15.5 6.92188 15.5 8.01562C15.5 9.10938 15.1094 10.0469 14.3281 10.8281ZM9.5 17.0156L12.5 20.0156H3.5V18C3.5 16.8125 4.40625 15.8594 6.21875 15.1406C8.0625 14.3906 9.82812 14.0156 11.5156 14.0156C11.9844 14.0156 12.3125 14.0312 12.5 14.0625L9.5 17.0156Z" fill="#95FF4A"/>
</svg>
